PathFileType	4	(X/Y/Z)	D:\TRACE\spotREDO_2-26-24\spot_justBody_Motion_1_3-platform.trc
DataRate	CameraRate	NumFrames	NumMarkers	Units	OrigDataRate	OrigDataStartFrame	OrigNumFrames
100.00	100.00	      48	5	mm	100.00	6126	      7000
Frame#	Time	Left_Front			Right_Front			Left_Aft			Right_Aft			Post			
		X1	Y1	Z1	X2	Y2	Z2	X3	Y3	Z3	X4	Y4	Z4	X5	Y5	Z5	

6126	61.250	-704.34259	17.48034	-569.87305	710.74792	23.22921	-485.19699	-775.42871	-17.03572	648.86639	794.70441	-10.11738	651.85852	4.98563	658.52472	-954.17853	
6127	61.260	-703.28668	17.51400	-569.72589	711.34192	23.45149	-485.16193	-774.23553	-17.63759	648.89105	795.62994	-10.33542	651.90497	5.86774	658.90918	-953.81610	
6128	61.270	-702.35992	17.61009	-569.62695	712.40863	23.47209	-485.10443	-773.23230	-17.69971	648.97803	796.57806	-10.48212	652.12665	6.81979	659.26331	-953.50824	
6129	61.280	-701.49689	17.88046	-569.56274	713.24225	23.56321	-485.11624	-772.44818	-17.92296	649.03351	797.75153	-10.64147	652.21112	7.92651	659.51825	-953.06384	
6130	61.290	-700.63434	18.11866	-569.60974	714.32281	23.88591	-484.88367	-771.54993	-18.05659	648.95770	798.59393	-10.73176	652.18561	8.83473	659.76044	-952.82996	
6131	61.300	-699.46564	18.23353	-569.62823	715.25134	24.23154	-485.00745	-770.49188	-18.23622	649.11340	799.66888	-11.00868	652.29895	9.83728	660.10229	-952.29724	
6132	61.310	-698.80280	18.51577	-569.57898	716.06696	24.35829	-484.96545	-769.49878	-18.53555	649.18042	800.64429	-11.56291	652.06042	10.62934	660.44965	-951.98932	
6133	61.320	-697.56696	18.81087	-569.37640	717.26996	24.36056	-484.94009	-768.54016	-18.71521	649.21796	801.63947	-11.59668	652.03931	11.60041	660.65094	-951.94989	
6134	61.330	-697.01941	18.90854	-569.45288	717.81964	24.67209	-484.96634	-767.72534	-18.91155	649.23944	802.69055	-12.01214	651.93994	12.64372	661.17310	-951.76434	
6135	61.340	-695.97913	19.14183	-569.30164	718.93958	24.74082	-484.80576	-766.80878	-19.14077	649.20721	803.48700	-12.06222	651.95978	13.51288	661.49829	-951.50940	
6136	61.350	-694.89856	19.29690	-569.24353	720.08496	25.06187	-484.76990	-765.61475	-19.17657	649.29260	804.72430	-12.08504	652.17352	14.59795	661.70770	-951.23334	
6137	61.360	-693.79358	19.29959	-569.13330	720.78210	25.23464	-484.68878	-764.60834	-19.41761	649.26141	805.26440	-12.16553	652.35992	15.50150	661.97198	-951.20618	
6138	61.370	-692.88348	19.50436	-569.04266	721.75922	25.16826	-484.58414	-763.79694	-19.67559	649.36169	806.16150	-12.33901	652.25787	16.60886	662.13245	-951.11676	
6139	61.380	-691.90088	19.68613	-569.18042	722.98761	25.30086	-484.51495	-762.82788	-19.69155	649.34924	807.35962	-12.35863	652.36493	17.36451	662.44794	-950.92584	
6140	61.390	-690.94513	19.76653	-569.05450	723.79468	25.46756	-484.54462	-761.77679	-19.96111	649.42029	808.49762	-12.39174	652.43793	18.36624	662.78497	-950.82367	
6141	61.400	-689.90930	19.90916	-569.03442	724.64435	25.74088	-484.69238	-760.89471	-20.03157	649.59485	809.47296	-12.49114	652.36084	19.48193	663.03839	-950.51617	
6142	61.410	-688.96869	20.15187	-568.90436	725.70087	25.78789	-484.47351	-759.80670	-20.29021	649.62555	810.47205	-12.63239	652.46381	20.65493	663.22473	-950.13104	
6143	61.420	-688.04773	20.29199	-568.87488	726.69940	25.75965	-484.41833	-758.91016	-20.39884	649.67719	811.23248	-12.91267	652.43359	21.10704	663.57581	-949.79150	
6144	61.430	-687.07281	20.27417	-568.88269	727.61066	26.23196	-484.38870	-757.80676	-20.42580	649.74750	812.19208	-13.02464	652.65002	22.78336	663.82520	-949.55927	
6145	61.440	-685.89789	20.48959	-568.89716	728.73798	26.18420	-484.27094	-756.76086	-20.85146	649.65582	813.18414	-13.33635	652.70056	23.07983	664.12909	-949.09607	
6146	61.450	-685.24066	20.65597	-568.80170	729.71771	26.18229	-484.23288	-756.07233	-20.92452	649.71368	814.07416	-13.44648	652.78290	24.11044	664.35229	-948.94244	
6147	61.460	-684.20447	20.73950	-568.70117	730.58234	26.28778	-484.16837	-754.98767	-21.00278	649.66052	814.96497	-13.70211	652.82794	24.08569	664.55237	-949.01831	
6148	61.470	-683.16803	21.02040	-568.71362	731.62701	26.59302	-484.02921	-754.11353	-21.18109	649.66077	815.90491	-13.85245	652.75012	25.31250	664.88452	-948.64435	
6149	61.480	-682.08972	21.08406	-568.63257	732.71967	26.69273	-483.81979	-753.18176	-21.19707	649.77643	817.14307	-14.15684	652.58673	26.45599	664.98523	-948.56073	
6150	61.490	-681.21497	21.18970	-568.54675	733.37396	26.85080	-484.04416	-752.06903	-21.36586	649.76227	817.84308	-14.43115	652.50964	27.65820	665.22974	-948.27258	
6151	61.500	-680.23840	21.49055	-568.40912	734.49896	26.78744	-483.97098	-751.20929	-21.54874	649.86768	819.23877	-14.36102	652.64008	29.17295	665.49469	-947.91138	
6152	61.510	-679.47577	21.46431	-568.51245	735.41852	26.74261	-484.02679	-750.29657	-21.73288	649.87573	820.01849	-14.52470	652.80713	29.58318	665.62061	-948.16504	
6153	61.520	-678.35974	21.56308	-568.52661	736.24817	27.07840	-484.17081	-749.32745	-21.82466	649.86047	820.67938	-14.70320	652.77264	30.73728	665.72101	-948.10327	
6154	61.530	-677.43781	21.66340	-568.35223	737.35254	27.27600	-483.90100	-748.32172	-21.56958	649.81396	821.88507	-14.94998	652.73761	31.69317	665.71088	-948.09924	
6155	61.540	-676.50562	21.86994	-568.44293	738.29749	27.25023	-483.74976	-747.51160	-21.77882	649.93604	822.55017	-15.05223	652.71173	32.88688	666.16156	-947.94653	
6156	61.550	-675.58679	21.91338	-568.53510	739.17346	27.39290	-483.92841	-746.56464	-22.12657	649.91278	823.75848	-14.82434	652.83142	33.91597	666.39429	-947.55072	
6157	61.560	-674.76660	22.04735	-568.46002	739.96881	27.47589	-483.82684	-745.23755	-22.31697	650.14197	824.90466	-14.91224	653.00665	34.43158	666.58636	-947.47552	
6158	61.570	-673.80676	22.21863	-568.42285	740.95245	27.46458	-483.87878	-744.47754	-22.56086	650.10022	825.38080	-14.88686	653.10107	35.33506	666.67236	-947.22803	
6159	61.580	-672.93481	22.45182	-568.18610	742.14594	27.66313	-483.58646	-743.81726	-22.58973	650.16534	826.27753	-15.17461	653.05731	36.46252	666.89270	-947.02722	
6160	61.590	-671.98553	22.35368	-568.20758	742.58569	27.98779	-483.76331	-742.96625	-22.59532	650.14563	827.12622	-15.26863	653.07013	37.26976	667.05988	-946.93872	
6161	61.600	-670.89325	22.57333	-568.16937	743.64746	27.93085	-483.74136	-741.96033	-22.58303	650.19244	828.12097	-15.38518	653.06641	38.05575	667.14954	-946.59973	
6162	61.610	-670.41248	22.65526	-568.22729	744.56384	27.91097	-483.66589	-741.22327	-22.62940	650.26306	829.02600	-15.36928	653.02118	38.92402	667.21881	-946.38324	
6163	61.620	-669.42615	22.69675	-568.10950	745.21161	27.95484	-483.67645	-740.20398	-22.84485	650.24255	830.16217	-15.24679	653.05951	39.93901	667.43591	-946.17920	
6164	61.630	-668.49518	22.76316	-568.08289	746.30206	28.04395	-483.90234	-739.17963	-22.98406	650.14325	830.83679	-15.48392	653.04840	40.95021	667.60675	-946.00262	
6165	61.640	-667.58105	22.82070	-568.11969	747.35590	28.30107	-483.73166	-738.33569	-22.89073	650.25397	831.61121	-15.64276	653.05603	41.75203	667.63733	-946.17145	
6166	61.650	-666.82452	22.89746	-568.12103	748.06714	28.26493	-483.59711	-737.63037	-23.08886	650.21643	832.52295	-15.63285	653.06824	42.44350	667.60718	-946.24872	
6167	61.660	-665.97430	22.84960	-568.16974	748.79919	28.47157	-483.80576	-736.74677	-23.00805	650.15009	833.47443	-15.69312	652.98737	43.21741	667.74329	-946.30292	
6168	61.670	-664.89423	22.80183	-568.13641	749.67291	28.18117	-483.57913	-735.93530	-22.91650	650.15692	834.23822	-15.82236	653.14008	44.04770	667.82788	-946.36023	
6169	61.680	-664.18158	22.75298	-568.18274	750.45020	28.14363	-483.61493	-735.28448	-23.10022	650.17249	835.07086	-15.91100	653.30115	45.01606	667.87604	-946.40100	
6170	61.690	-663.44202	22.97600	-567.98907	751.42133	28.21749	-483.65237	-734.33630	-23.20632	650.29785	836.20795	-16.30020	653.10767	45.69115	667.98053	-946.54852	
6171	61.700	-662.77338	23.02322	-567.99622	751.98938	28.63227	-483.63202	-733.63831	-23.30877	650.28729	836.61786	-16.27268	653.11987	46.61905	668.12238	-946.25446	
6172	61.710	-661.83099	23.03661	-568.02814	752.78467	28.62834	-483.58847	-732.89459	-23.01555	650.19513	837.44580	-16.36234	652.88074	47.14382	668.26282	-946.20184	
6173	61.720	-661.05737	23.10394	-567.98175	753.71063	28.70468	-483.59961	-732.00769	-23.02373	650.18250	838.23724	-16.03875	653.02069	48.03561	668.37158	-945.98364	
